# xmcd
#
# Track frame offsets:
#	150
#	12385
#	26494
#	62654
#	82465
#	104000
#	114811
#	136572
#	154808
#	184820
#	202457
#	221968
#	233677
#	244637
#	259648
#	270908
#
# Disc length: 3798 seconds
#
# Revision: 1
# Processed by: cddbd v1.5.2PL0 Copyright (c) Steve Scherf et al.
# Submitted via: audiograbber 1.83.01
#
DISCID=e10ed410
DTITLE=Steve Miller Band - Anthology
DYEAR=1972
DGENRE=Rock
TTITLE0=I Love You
TTITLE1=Going To The Country
TTITLE2=Baby's House
TTITLE3=Kow Kow Calqulator
TTITLE4=Your Saving Grace
TTITLE5=Going To Mexico
TTITLE6=Space Cowboy
TTITLE7=Living In The U.S.A.
TTITLE8=Journey From Eden
TTITLE9=Seasons
TTITLE10=Motherless Children
TTITLE11=Never Kill Another Man
TTITLE12=Don't Let Nobody Turn You Around
TTITLE13=Little Girl
TTITLE14=Celebration
TTITLE15=My Dark Hour..
EXTD=
EXTT0=
EXTT1=
EXTT2=
EXTT3=
EXTT4=
EXTT5=
EXTT6=
EXTT7=
EXTT8=
EXTT9=
EXTT10=
EXTT11=
EXTT12=
EXTT13=
EXTT14=
EXTT15=
PLAYORDER=
